<?xml version="1.0" standalone="no"?>
<!DOCTYPE svg PUBLIC "-//W3C//DTD SVG 20010904//EN"
 "http://www.w3.org/TR/2001/REC-SVG-20010904/DTD/svg10.dtd">
<svg version="1.0" xmlns="http://www.w3.org/2000/svg"
 width="512.000000pt" height="512.000000pt" viewBox="0 0 512.000000 512.000000"
 preserveAspectRatio="xMidYMid meet">

<g transform="translate(0.000000,512.000000) scale(0.100000,-0.100000)"
fill="#000000" stroke="none">
<path d="M383 5106 c-181 -44 -334 -202 -372 -384 -16 -75 -16 -4249 0 -4324
39 -187 200 -348 387 -387 75 -16 4249 -16 4324 0 92 19 177 67 249 138 71 72
119 157 138 249 16 75 16 4249 0 4324 -39 187 -200 348 -387 387 -81 17 -4268
14 -4339 -3z m4358 -212 c66 -31 114 -78 146 -142 l28 -57 0 -2135 0 -2135
-21 -46 c-31 -66 -78 -114 -142 -146 l-57 -28 -2135 0 -2135 0 -57 28 c-64 32
-111 80 -142 146 l-21 46 -3 2105 c-2 1502 0 2120 8 2156 22 101 93 181 193
216 49 17 157 17 2172 15 l2120 -2 46 -21z"/>
<path d="M451 4706 c-87 -48 -50 -186 49 -186 51 0 100 49 100 99 0 75 -83
124 -149 87z"/>
<path d="M4571 4706 c-87 -48 -50 -186 49 -186 51 0 100 49 100 99 0 75 -83
124 -149 87z"/>
<path d="M2380 4653 c-91 -7 -294 -45 -397 -74 -476 -134 -902 -448 -1179
-869 -137 -209 -270 -530 -299 -722 -22 -144 155 -182 194 -42 6 22 11 45 11
51 0 31 92 287 133 373 188 392 488 696 878 889 887 441 1947 131 2465 -720
481 -789 311 -1825 -398 -2427 -761 -646 -1901 -591 -2588 124 -228 237 -392
528 -475 839 -35 132 -43 151 -71 170 -29 19 -83 19 -110 0 -58 -40 -54 -104
22 -335 175 -533 556 -980 1044 -1225 812 -407 1797 -249 2435 390 348 350
555 789 605 1284 46 465 -78 963 -339 1356 -307 463 -793 793 -1326 900 -198
40 -411 53 -605 38z"/>
<path d="M2511 4247 c-50 -29 -50 -32 -51 -489 l0 -426 -62 62 c-112 111 -259
196 -413 237 -116 32 -336 32 -450 1 -318 -88 -562 -332 -646 -647 -27 -101
-40 -415 -19 -465 25 -60 27 -60 494 -60 l424 0 -62 -62 c-111 -112 -195 -259
-237 -413 -32 -115 -32 -335 0 -450 86 -317 331 -562 646 -646 101 -27 415
-40 465 -19 60 25 60 27 60 494 l0 424 63 -62 c111 -111 258 -195 412 -237
115 -32 335 -32 450 0 317 86 562 331 646 646 27 101 40 415 19 465 -25 60
-27 60 -494 60 l-424 0 62 63 c111 111 195 258 237 412 18 65 22 107 22 225 0
118 -4 160 -22 225 -86 317 -330 562 -646 646 -103 28 -434 39 -474 16z m382
-201 c212 -41 395 -182 491 -378 101 -206 101 -410 0 -616 -54 -110 -150 -219
-248 -280 -96 -61 -97 -61 -128 7 -53 113 -173 218 -292 255 l-56 18 0 504 0
504 79 0 c44 0 113 -6 154 -14z m-995 -602 c185 -38 344 -146 447 -304 65 -99
65 -100 -4 -132 -113 -53 -218 -173 -255 -292 l-18 -56 -504 0 -504 0 0 79 c0
122 23 223 76 331 39 79 62 110 133 181 71 71 102 94 181 133 148 73 292 92
448 60z m796 -618 c105 -51 161 -144 161 -266 0 -85 -21 -142 -74 -203 -82
-92 -237 -121 -353 -64 -160 79 -215 278 -118 430 80 126 246 170 384 103z
m1366 -446 c0 -119 -24 -221 -77 -330 -38 -79 -60 -109 -132 -181 -72 -72
-102 -94 -181 -132 -209 -102 -411 -102 -618 -1 -110 54 -219 150 -280 248
-61 96 -61 97 7 128 113 53 211 164 252 287 l21 61 504 0 504 0 0 -80z m-1948
-39 c53 -112 173 -218 292 -255 l56 -18 0 -504 0 -504 -80 0 c-119 0 -221 24
-330 77 -79 38 -109 60 -181 132 -71 71 -94 102 -133 181 -73 149 -92 290 -60
448 40 203 174 382 359 481 22 11 42 21 45 21 3 0 17 -27 32 -59z"/>
<path d="M511 2646 c-87 -48 -50 -186 49 -186 51 0 100 49 100 99 0 75 -83
124 -149 87z"/>
<path d="M451 586 c-87 -48 -50 -186 49 -186 51 0 100 49 100 99 0 75 -83 124
-149 87z"/>
<path d="M4571 586 c-87 -48 -50 -186 49 -186 51 0 100 49 100 99 0 75 -83
124 -149 87z"/>
</g>
</svg>
