<?xml version="1.0" standalone="no"?>
<!DOCTYPE svg PUBLIC "-//W3C//DTD SVG 20010904//EN"
 "http://www.w3.org/TR/2001/REC-SVG-20010904/DTD/svg10.dtd">
<svg version="1.0" xmlns="http://www.w3.org/2000/svg"
 width="3392.000000pt" height="1089.000000pt" viewBox="0 0 3392.000000 1089.000000"
 preserveAspectRatio="xMidYMid meet">

<g transform="translate(0.000000,1089.000000) scale(0.100000,-0.100000)"
fill="#242837" stroke="none">
<path d="M8645 9794 c-577 -492 -1052 -897 -1057 -900 -4 -3 -8 91 -8 209 l0
215 29 5 c39 8 85 56 99 104 8 26 12 116 12 249 0 192 -2 211 -21 252 -42 87
-1 82 -710 82 -621 0 -627 0 -653 -21 -15 -11 -37 -40 -49 -62 -21 -40 -22
-54 -22 -262 0 -210 1 -222 23 -263 23 -43 72 -82 105 -82 16 0 17 -41 17
-717 l0 -718 -1900 -1620 c-1044 -891 -1899 -1624 -1899 -1628 -1 -10 215
-592 228 -614 5 -10 922 766 3407 2888 1869 1596 3410 2912 3424 2925 l26 24
3484 -2975 c1917 -1636 3487 -2975 3490 -2975 3 0 1573 1339 3490 2975 l3484
2975 26 -24 c14 -13 1555 -1329 3424 -2925 2465 -2104 3402 -2898 3407 -2888
13 22 229 604 228 614 0 6 -6958 5952 -7059 6031 l-29 24 -48 -40 c-42 -36
-320 -148 -2368 -957 -1276 -505 -2328 -919 -2337 -922 -17 -5 -18 13 -18 271
0 274 0 276 21 276 37 0 79 34 104 84 24 48 25 56 25 261 0 207 0 212 -26 263
-16 32 -37 58 -55 67 -24 13 -122 15 -653 15 l-625 0 -36 -31 c-54 -48 -65
-100 -65 -311 0 -99 5 -199 11 -222 15 -60 61 -114 104 -122 l35 -6 0 -504 c0
-469 -1 -504 -17 -512 -32 -17 -1012 -402 -1023 -402 -5 0 -1554 610 -3442
1356 -3009 1188 -3439 1360 -3480 1395 -26 21 -48 39 -50 39 -2 0 -476 -403
-1053 -896z m5309 -1578 c1358 -536 2470 -977 2472 -979 2 -2 3 -517 2 -1144
l-3 -1140 -2465 2104 c-1356 1157 -2474 2113 -2485 2125 -13 14 -15 19 -5 15
8 -3 1126 -444 2484 -981z m7906 960 c-14 -13 -1042 -891 -2285 -1952 -1243
-1060 -2351 -2006 -2462 -2101 l-203 -174 0 1144 0 1144 2483 981 c1365 540
2484 981 2487 982 2 0 -7 -11 -20 -24z"/>
<path d="M7680 7645 l-2065 -1755 -587 -597 c-324 -329 -588 -601 -588 -606 0
-14 449 297 1066 739 361 258 364 261 1440 1175 594 504 1469 1247 1946 1652
l867 735 1468 -1246 c807 -686 1684 -1431 1948 -1655 446 -380 508 -429 875
-691 350 -250 791 -559 980 -686 l65 -44 -62 70 c-79 90 -988 1013 -1118 1136
-55 52 -469 407 -920 789 -451 382 -1362 1155 -2024 1717 -662 562 -1209 1022
-1215 1021 -6 0 -940 -790 -2076 -1754z"/>
<path d="M21519 7656 l-2054 -1743 -525 -530 c-289 -291 -563 -572 -610 -623
l-85 -94 130 89 c230 157 520 361 925 651 l395 282 1944 1650 1943 1651 262
-223 c143 -122 695 -590 1226 -1041 531 -450 1291 -1096 1690 -1435 711 -605
732 -622 1110 -892 540 -385 1019 -718 1036 -718 10 0 -336 358 -781 808 -399
404 -401 406 -950 871 -302 256 -1233 1045 -2067 1753 -834 709 -1521 1288
-1526 1288 -5 0 -933 -785 -2063 -1744z"/>
<path d="M8910 7000 l0 -380 380 0 380 0 0 380 0 380 -380 0 -380 0 0 -380z"/>
<path d="M9850 7000 l0 -380 380 0 380 0 0 380 0 380 -380 0 -380 0 0 -380z"/>
<path d="M22730 7000 l0 -380 380 0 380 0 0 380 0 380 -380 0 -380 0 0 -380z"/>
<path d="M23670 7000 l0 -380 380 0 380 0 0 380 0 380 -380 0 -380 0 0 -380z"/>
<path d="M8910 6060 l0 -380 380 0 380 0 0 380 0 380 -380 0 -380 0 0 -380z"/>
<path d="M9850 6060 l0 -380 380 0 380 0 0 380 0 380 -380 0 -380 0 0 -380z"/>
<path d="M22730 6060 l0 -380 380 0 380 0 0 380 0 380 -380 0 -380 0 0 -380z"/>
<path d="M23670 6060 l0 -380 380 0 380 0 0 380 0 380 -380 0 -380 0 0 -380z"/>
<path d="M15795 3374 c-852 -27 -1134 -39 -1670 -74 -4193 -275 -7816 -1237
-9580 -2545 -141 -104 -334 -266 -405 -340 l-55 -57 70 50 c592 424 1606 848
2779 1162 2083 557 4799 912 7801 1020 1150 41 2703 41 3850 0 3148 -114 6019
-502 8088 -1094 535 -154 1166 -380 1577 -566 339 -154 710 -361 935 -522 l70
-50 -55 57 c-116 120 -384 334 -615 490 -1359 916 -3711 1671 -6505 2089
-1310 196 -2473 302 -4035 367 -239 10 -2020 20 -2250 13z"/>
</g>
</svg>
